<?xml version="1.0" encoding="utf-8"?>
<!-- Generator: Adobe Illustrator 25.0.0, SVG Export Plug-In . SVG Version: 6.00 Build 0)  -->
<svg version="1.1" id="Layer_1" xmlns="http://www.w3.org/2000/svg" xmlns:xlink="http://www.w3.org/1999/xlink" x="0px" y="0px"
	 viewBox="0 0 59 41" style="enable-background:new 0 0 59 41;" xml:space="preserve">
<path style="fill:#FEE92A;" d="M16.5,4L16,16.5L44,18l1.5-1.5L39.5,2h-22L16.5,4z"/>
<path style="fill-rule:evenodd;clip-rule:evenodd;fill:#105D36;" d="M7.8,0.1c-0.1,0-0.7,0.8-1.4,1.7C4.8,3.9,4.8,3.8,7,5.4l1.7,1.2
	l0,2.2l0,2.2L8.1,11c-1,0.1-1.8,0.5-2.4,1.1C5,12.9,4.8,13.6,4.8,15V16l-1.5,0c-1.4,0-1.6,0.1-2.1,0.4c-0.4,0.2-0.7,0.5-0.9,0.9
	L0,17.9l0,7.3c0,7,0,7.3,0.2,7.6c0.2,0.3,0.3,0.3,2.2,0.3l2,0l0.2,0.9c0.2,1.1,1,2.8,1.8,3.7c1.1,1.4,2.9,2.6,4.7,3
	c1,0.3,3.4,0.3,4.5,0c1.8-0.5,3.6-1.7,4.7-3.2c0.8-1.1,1.3-2.1,1.6-3.4l0.3-1l2.3-0.1c1.3,0,2.9-0.1,3.7-0.1l1.4,0l0.2,0.3
	c0.1,0.2,0.3,0.4,0.4,0.4c0.1,0,1.3,0.1,2.7,0.1h2.6l0.2,0.5c0.4,0.8,1.2,2.1,2,2.9c1.5,1.6,3.6,2.9,5.8,3.5c1,0.3,1.3,0.3,3.1,0.3
	c1.8,0,2.1,0,3.1-0.3c4.4-1.2,7.8-4.6,8.9-8.9c0.2-0.6,0.3-1.3,0.3-1.5c0-0.2,0.1,0.2,0.1,0.9s0.1-2,0.1-6.1c0-6.9,0-7.1-0.1-2.4
	c0,2.7-0.1,4.8-0.1,4.6c-0.1-0.8-0.6-2.6-1-3.6c-1-2-2.5-3.8-4.3-5c-1.8-1.2-3.6-1.8-5.9-2.1l-1.4-0.1l-2.7-7.5
	c-2-5.6-2.7-7.6-2.9-7.7C40.4,1,39.8,1,29.2,1C16.7,1,17.3,1,16.4,1.8c-0.7,0.7-0.8,1.1-0.8,5.4V11h-0.8h-0.8L14,7.6
	c0-1.9-0.1-3.5-0.1-3.6c0-0.1-1.3-1-2.7-2.1C8.6,0.1,8.3-0.1,7.8,0.1z M7.8,2.7L7.2,3.4l1.2,0.9c0.7,0.5,1.4,1,1.6,1.2l0.3,0.3v2.6
	V11h1h1l0-1.3c0-0.7,0-2.2,0.1-3.1l0.1-1.8l-2-1.4c-1.1-0.8-2-1.4-2-1.4S8.2,2.3,7.8,2.7z M18,2.7c-0.6,0.3-0.6,0.1-0.6,7.1v6.5
	l2.1,0c1.2,0,6.7,0.1,12.3,0.1c5.6,0.1,10.8,0.1,11.5,0.1l1.3,0l-2.4-6.9l-2.4-6.9l-10.7,0C23.1,2.6,18.1,2.7,18,2.7z M27.4,5.4
	c-0.2,0.1-0.5,0.4-0.6,0.6c-0.2,0.4-0.2,0.6-0.2,3.7c0,3.1,0,3.4,0.2,3.6l0.2,0.3l6.5,0c3.6,0,6.7,0,6.9,0c0.5-0.1,0.7-0.3,0.7-0.8
	c0-0.5-2.5-7.3-2.7-7.5c-0.1-0.1-1.4-0.1-5.4-0.1C28,5.1,27.8,5.2,27.4,5.4z M18.8,5.6c-0.2,0.2-0.2,0.5-0.3,3.5c0,1.8,0,3.4,0,3.5
	c0,0.1,0.2,0.4,0.3,0.5c0.2,0.2,0.4,0.2,2.6,0.2c1.3,0,2.5,0,2.6-0.1c0.5-0.2,0.5-0.6,0.5-4c0-3.2,0-3.3-0.2-3.6l-0.2-0.3h-2.6
	C19.1,5.4,19,5.4,18.8,5.6z M28.3,6.8c0,0-0.1,1.2-0.1,2.6v2.5h5.5c3,0,5.5,0,5.5,0c0,0-0.4-1.2-0.9-2.6l-0.9-2.5l-4.5,0
	C30.4,6.8,28.3,6.8,28.3,6.8z M20.3,9.4v2.4h1.3h1.3V9.4V7h-1.3h-1.3V9.4z M7.8,12.8c-0.4,0.1-0.9,0.5-1,0.9
	c-0.1,0.2-0.2,0.8-0.2,1.4v1h4.5h4.5v-1.7v-1.7l-3.8,0C9.7,12.7,7.9,12.8,7.8,12.8z M2,18.1l-0.4,0.4v6.5v6.5H3c1.4,0,1.4,0,1.4-0.3
	c0-0.5,0.4-1.8,0.9-2.8c0.9-1.8,2.2-3.2,4.1-4.1c2.2-1.1,4.5-1.2,6.8-0.4c2.9,1,5,3.5,5.7,6.5l0.2,1h3.7h3.7l0-3.7l0-3.7l0.3-0.3
	c0.3-0.3,0.3-0.3,2.9-0.3l2.6,0l0.3-0.6c0.9-1.6,2.2-3.1,3.7-4.1l0.8-0.6l-0.7-0.1c-0.4,0-7.3-0.1-15.3-0.2C16.2,17.9,8,17.8,6,17.8
	l-3.6-0.1L2,18.1z M0.1,25.2c0,4.1,0,5.7,0,3.7c0-2,0-5.4,0-7.4C0.1,19.5,0.1,21.2,0.1,25.2z M44.9,18.3c-2.8,0.5-5.4,2.1-7,4.4
	l-0.5,0.7H38c0.4,0,0.6,0,0.6-0.1c0-0.1,0.4-0.5,0.9-1c1.9-2,4.2-3,7-3c3.8,0,7,2,8.6,5.5c0.7,1.4,0.8,2.1,0.8,4.1
	c0,1.7,0,1.8-0.4,2.9c-0.5,1.4-1.1,2.5-2.1,3.5c-1.7,1.8-3.9,2.9-6.4,3c-3.1,0.2-6.5-1.4-8.2-3.8l-0.4-0.6h-0.6
	c-0.6,0-0.6,0-0.5,0.3c0.6,1.1,2.1,2.7,3.3,3.5c2.8,1.9,6.5,2.3,9.7,1.1c3-1.1,5.4-3.6,6.4-6.7c2-6.1-1.8-12.4-8.1-13.7
	C47.7,18.2,45.8,18.2,44.9,18.3z M45.1,21.1c-1.4,0.2-3.1,1.1-3.9,2l-0.4,0.4h4c2.4,0,4.2,0.1,4.7,0.1c1.6,0.3,3,1.3,3.7,2.8
	c0.4,0.9,0.4,0.9,0.4,2.2c0,1.3,0,1.3-0.4,2.2c-0.7,1.5-1.9,2.4-3.4,2.8c-0.5,0.1-1.5,0.2-4.9,0.2l-4.3,0l0.8,0.7
	c1.4,1.3,3.3,2,5.4,2c2.1,0,3.8-0.7,5.3-2.2c1.6-1.6,2.2-3,2.3-5.1c0.1-2.4-0.6-4.2-2.3-5.8c-1.1-1.1-1.8-1.5-3.2-2
	C47.9,21,46.2,20.9,45.1,21.1z M22.8,21.5c-0.3,0.4-0.3,0.8,0,1.1c0.3,0.3,0.3,0.3,2.3,0.3c1.9,0,2.1,0,2.4-0.2
	c0.4-0.3,0.4-0.9,0-1.2c-0.3-0.2-0.4-0.2-2.4-0.2H23L22.8,21.5z M22.8,24.2c-0.4,0.4-0.4,0.9,0,1.2c0.3,0.2,0.4,0.2,2.4,0.2
	c2.1,0,2.1,0,2.4-0.3c0.4-0.4,0.3-0.9-0.1-1.2C27.3,24,27.1,24,25.2,24C23.2,24,23.1,24,22.8,24.2z M11.8,25.3
	c-3.4,0.7-5.8,3.9-5.6,7.4c0.2,2.8,2.1,5.4,4.7,6.3c1.6,0.6,3.3,0.6,4.9,0c1.9-0.7,3.6-2.4,4.3-4.3c0.6-1.6,0.6-3.2,0-4.8
	C18.9,26.5,15.3,24.5,11.8,25.3z M31.4,25.3c0,0-0.1,1.6-0.1,3.4v3.4h9c10.3,0,9.6,0.1,10.7-1c0.5-0.5,0.7-0.8,0.8-1.3
	c0.5-1.7-0.3-3.5-1.9-4.2c-0.5-0.2-0.6-0.2-9.5-0.3C35.5,25.2,31.4,25.3,31.4,25.3z M46.1,26.2c-0.7,0.1-1.1,0.4-1.6,0.9
	c-1.5,1.7-0.3,4.4,2,4.4c2.4,0,3.6-2.8,2-4.5C47.9,26.3,47,26,46.1,26.2z M12.2,26.4c-2.1,0.4-4.1,2.2-4.6,4.3
	c-0.8,3,0.8,6.1,3.8,7.2c1,0.4,2.9,0.4,3.9,0c3.2-1.3,4.8-4.6,3.6-7.8c-0.6-1.5-2.1-2.9-3.7-3.4C14.4,26.3,13,26.2,12.2,26.4z
	 M46.1,27.9c-0.4,0.2-0.5,0.5-0.5,0.9c0,1,1.2,1.4,1.8,0.6c0.5-0.6,0.2-1.5-0.6-1.6C46.5,27.8,46.2,27.8,46.1,27.9z M12.1,28.1
	c-1.3,0.4-2.2,1.3-2.8,2.4C9.1,31.1,9,31.4,9,32.3c0,0.9,0,1.1,0.4,1.8c0.5,0.9,1.2,1.7,2.1,2.1c0.7,0.3,0.9,0.4,1.8,0.4
	c0.9,0,1.1,0,1.7-0.3c0.9-0.4,1.8-1.3,2.2-2.2c0.3-0.6,0.3-0.8,0.3-1.7c0-0.9,0-1.1-0.4-1.8c-0.7-1.5-2.1-2.4-3.7-2.5
	C13,28,12.4,28,12.1,28.1z M12.2,29.9c-0.9,0.4-1.3,1.1-1.5,2c-0.1,0.8,0.1,1.5,0.7,2c1,1.1,2.5,1.1,3.6,0.1
	c1.8-1.6,0.6-4.5-1.8-4.4C12.9,29.7,12.4,29.8,12.2,29.9z M12.9,31.4c-0.3,0.1-0.5,0.5-0.5,0.9c0,0.7,0.6,1,1.2,0.8
	c0.4-0.2,0.6-0.5,0.6-1C14.1,31.5,13.5,31.2,12.9,31.4z"/>
</svg>
