<?xml version="1.0" encoding="utf-8"?>
<!-- Generator: Adobe Illustrator 25.0.0, SVG Export Plug-In . SVG Version: 6.00 Build 0)  -->
<svg version="1.1" id="Layer_1" xmlns="http://www.w3.org/2000/svg" xmlns:xlink="http://www.w3.org/1999/xlink" x="0px" y="0px"
	 viewBox="0 0 52 52" style="enable-background:new 0 0 52 52;" xml:space="preserve">
<path style="fill:#FEE92A;" d="M39.5,18h-4l-4,8h4v4l6-7l-4-0.5L39.5,18z"/>
<path style="fill-rule:evenodd;clip-rule:evenodd;fill:#105D36;" d="M46.8,2.3c0,2.3,0,2.3-0.3,2.6c-0.2,0.2-0.4,0.3-0.9,0.3h-0.6
	V4.6c0-0.5,0-0.6-0.3-0.9l-0.3-0.3h-8.1h-8.1L28,3.7C27.7,4,27.7,4,27.7,6.1s0,2.1,0.3,2.3c0.2,0.2,0.4,0.3,0.9,0.3h0.6v0.9v0.9
	H15.9c-10.4,0-13.7,0-14.1,0.1c-0.6,0.2-1.5,1.1-1.7,1.7C0,12.5,0,16.8,0,30.3V48l0.3,0.3c0.3,0.3,0.3,0.3,2.2,0.3h1.9V50
	c0,1.4,0,1.5,0.3,1.7L4.9,52h4.7h4.7l0.3-0.3c0.3-0.3,0.3-0.3,0.3-1.7v-1.5H26h11.3V50c0,1.4,0,1.5,0.3,1.7l0.3,0.3h4.7h4.7l0.3-0.3
	c0.3-0.3,0.3-0.3,0.3-1.7v-1.5h1.9c1.9,0,1.9,0,2.2-0.3L52,48V30.3c0-13.6,0-17.8-0.1-18.1c-0.2-0.6-1.1-1.5-1.7-1.7
	c-0.3-0.1-1.5-0.1-3.7-0.1h-3.2V9.5V8.7h0.6c0.8,0,1.1-0.3,1.1-1.1V6.9h0.6c0.9,0,1.4-0.2,2-0.8c0.8-0.8,0.8-1,0.8-3.8V0h-0.9h-0.9
	V2.3z M29.5,6.1v0.9h6.9h6.9V6.1V5.2h-6.9h-6.9V6.1z M31.2,9.5v0.9h0.9h0.9V9.5V8.7h-0.9h-0.9V9.5z M34.7,9.5v0.9h1.7h1.7V9.5V8.7
	h-1.7h-1.7V9.5z M39.9,9.5v0.9h0.9h0.9V9.5V8.7h-0.9h-0.9V9.5z M2,12.4l-0.3,0.3v14.5v14.5h3h3v-1.3V39H6.3c-1.4,0-1.5,0-1.7-0.3
	c-0.3-0.3-0.3-0.3-0.3-2.3c0-2.1,0-2.1,0.3-2.3c0.3-0.3,0.3-0.3,1.7-0.3h1.5v-6.1v-6.1H6.3c-1.4,0-1.5,0-1.7-0.3
	c-0.3-0.3-0.3-0.3-0.3-2.3s0-2.1,0.3-2.3c0.3-0.3,0.3-0.3,1.7-0.3h1.5v-1c0-1,0-1.1,0.3-1.3l0.3-0.3h18.5h18.5l0.3,0.3l0.3,0.3V28
	v13.6h2.2h2.2V27.1V12.7L50,12.4l-0.3-0.3H26H2.3L2,12.4z M9.5,28.6v13h6.1h6.1v-13v-13h-6.1H9.5V28.6z M23.4,28.6v13h1.7h1.7v-13
	v-13h-1.7h-1.7V28.6z M28.6,28.6v13h7.8h7.8v-13v-13h-7.8h-7.8V28.6z M11.5,17.6l-0.3,0.3v3.8v3.8l0.3,0.3l0.3,0.3h3.8h3.8l0.3-0.3
	l0.3-0.3v-3.8v-3.8l-0.3-0.3l-0.3-0.3h-3.8h-3.8L11.5,17.6z M35,17.5c-0.3,0.3-4.7,8.2-4.7,8.5c0,0.2,0.1,0.4,0.3,0.5
	c0.3,0.3,0.3,0.3,2.2,0.3h1.9v1.9c0,1.9,0,1.9,0.3,2.2c0.3,0.3,0.8,0.4,1.1,0.1c0.1-0.1,1.6-2,3.3-4.2c3.4-4.4,3.4-4.4,2.9-4.9
	c-0.3-0.3-0.3-0.3-1.8-0.3h-1.6l1-1.6c0.6-1,1-1.7,1-1.9c0-0.2-0.1-0.4-0.3-0.6l-0.3-0.3h-2.5C35.5,17.3,35.2,17.4,35,17.5z
	 M6.1,19.1v0.9h0.9h0.9v-0.9v-0.9H6.9H6.1V19.1z M13,21.7v2.6h2.6h2.6v-2.6v-2.6h-2.6H13V21.7z M34.4,22c-0.9,1.6-1.6,3-1.7,3
	c0,0,0.7,0.1,1.5,0.1c2.1,0,2.1,0,2.1,1.5l0.1,1.1l1.7-2.1l1.7-2.1l-1.5-0.1c-1.4-0.1-1.5-0.1-1.7-0.3c-0.1-0.1-0.2-0.4-0.2-0.5
	c0-0.1,0.4-1,1-1.9l1-1.6l-1.2,0l-1.2,0L34.4,22z M11.3,28.6v0.9h4.3h4.3v-0.9v-0.9h-4.3h-4.3V28.6z M11.3,32.1v0.9H13h1.7v-0.9
	v-0.9H13h-1.7V32.1z M16.5,32.1v0.9h1.7h1.7v-0.9v-0.9h-1.7h-1.7V32.1z M40.7,36v2.2h-0.9H39V39v0.9h1.5c1.4,0,1.5,0,1.7-0.3
	l0.3-0.3v-2.8v-2.8h-0.9h-0.9V36z M6.1,36.4v0.9h0.9h0.9v-0.9v-0.9H6.9H6.1V36.4z M32.1,39v0.9h0.9h0.9V39v-0.9h-0.9h-0.9V39z
	 M35.5,39v0.9h0.9h0.9V39v-0.9h-0.9h-0.9V39z M1.7,45.1v1.7H26h24.3v-1.7v-1.7H26H1.7V45.1z M6.1,49.4v0.9h3.5H13v-0.9v-0.9H9.5H6.1
	V49.4z M39,49.4v0.9h3.5h3.5v-0.9v-0.9h-3.5H39V49.4z"/>
</svg>
