<?xml version="1.0" encoding="utf-8"?>
<!-- Generator: Adobe Illustrator 25.0.0, SVG Export Plug-In . SVG Version: 6.00 Build 0)  -->
<svg version="1.1" id="Layer_1" xmlns="http://www.w3.org/2000/svg" xmlns:xlink="http://www.w3.org/1999/xlink" x="0px" y="0px"
	 viewBox="0 0 47 48.1" style="enable-background:new 0 0 47 48.1;" xml:space="preserve">
<rect x="5" y="1" style="fill:#FEE92A;" width="36" height="26"/>
<path style="fill-rule:evenodd;clip-rule:evenodd;fill:#105D36;" d="M4.8,0.1C4.4,0.3,4.3,0.6,4.2,1.9l0,1.2H2.5
	c-1.9,0-2.2,0.1-2.4,0.5C0,3.9,0,5,0,7.9v3.9l0.3,0.3c0.5,0.5,1.4,0.3,1.6-0.3C2,11.6,2,10.4,2,8.3V5.2h1.1h1.1l0,17.8
	c0,12.2,0,17.9,0.1,18.1c0.1,0.2,0.2,0.4,0.4,0.5c0.3,0.2,0.5,0.2,2.6,0.2l2.3,0l0,2.7c0,3,0,3.2,0.6,3.5c0.3,0.1,0.6,0.2,2.8,0.1
	l2.4,0l0.3-0.3l0.3-0.3v-2.8v-2.8h7.6h7.6v2.8v2.8l0.3,0.3l0.3,0.3l2.4,0c2.2,0,2.5,0,2.8-0.1c0.5-0.3,0.6-0.5,0.6-3.5l0-2.7l2.3,0
	c2.1,0,2.3,0,2.6-0.2c0.2-0.1,0.3-0.3,0.4-0.5c0.1-0.2,0.1-5.9,0.1-18.1l0-17.8h1.1H45v3.2c0,2,0,3.3,0.1,3.5
	c0.2,0.7,1.1,0.8,1.6,0.3l0.3-0.3v-4c0-4.3,0-4.4-0.5-4.6c-0.2-0.1-0.8-0.1-2-0.1h-1.7l0-1.2c0-1.4-0.1-1.7-0.7-1.8
	C41.9,0,36.3,0,23.5,0C8.3,0,5.1,0,4.8,0.1z M6.3,14.1v12.1h8.1h8.1V14.1V2h-8.1H6.3V14.1z M24.6,14.1v12.1h8.1h8.1V14.1V2h-8.1
	h-8.1V14.1z M6.3,34v5.8h17.2h17.2V34v-5.8H23.5H6.3V34z M11.1,32.7c-0.1,0.1-0.3,0.3-0.3,0.4c-0.1,0.3,0,0.8,0.3,1
	c0.3,0.2,3.4,1.2,3.9,1.2c0.5,0,0.9-0.4,0.9-1c0-0.6-0.3-0.8-2.2-1.4C11.9,32.4,11.5,32.4,11.1,32.7z M33.2,33
	c-1.9,0.6-2.2,0.8-2.2,1.4c0,0.5,0.4,1,0.9,1c0.5,0,3.6-1,3.9-1.2c0.5-0.4,0.4-1.2-0.1-1.5C35.5,32.4,35,32.5,33.2,33z M11.7,43.9
	v2.2h1.1h1.1v-2.2v-2.2h-1.1h-1.1V43.9z M33.1,43.9v2.2h1.1h1.1v-2.2v-2.2h-1.1h-1.1V43.9z"/>
</svg>
