<?xml version="1.0" encoding="utf-8"?>
<!-- Generator: Adobe Illustrator 25.0.0, SVG Export Plug-In . SVG Version: 6.00 Build 0)  -->
<svg version="1.1" id="Layer_1" xmlns="http://www.w3.org/2000/svg" xmlns:xlink="http://www.w3.org/1999/xlink" x="0px" y="0px"
	 viewBox="0 0 64 40.1" style="enable-background:new 0 0 64 40.1;" xml:space="preserve">
<path style="fill:#FEE92A;" d="M27.5,36.5h14l-1-4V27l2-4l3.5-3.5l5.5-1.5l4.5-1l1.5-2.5l-2.5-3V9l2.5-2.5l-4.5-3L46.5,1h-5l-1,2
	l2,3v4.5l-2,4.5L34,18.5l-4.5,1h-3l-3,3.5v7.5C23.1,35.7,26,36.7,27.5,36.5z"/>
<path style="fill-rule:evenodd;clip-rule:evenodd;fill:#105D36;" d="M42,0.1c-1.2,0.1-1.8,0.5-2.2,1.3c-0.4,0.7-0.3,1.4,0,2.2
	c0.2,0.3,0.3,0.7,0.3,0.7c0,0.1-0.5,0.1-1.1,0.1c-1,0-1.2,0-1.4,0.2c-0.3,0.3-0.3,0.9,0,1.3c0.2,0.3,0.3,0.3,2,0.3l1.8,0l0.2,0.6
	C41.9,7.6,42,9.2,41.8,9c-0.1-0.1-0.6-0.4-1-0.7c-1.5-1-3.8-1.7-5.6-1.7c-3,0-6,1.4-7.9,3.7l-0.6,0.7L23,11c-2.8,0-3.7,0-4-0.2
	c-0.2-0.1-2-1.4-3.9-3c-1.9-1.5-3.6-2.9-3.8-3c-0.2-0.1-1-0.2-3.5-0.1c-3,0-3.2,0.1-3.7,0.3C2.8,5.8,2.2,7.5,2.9,8.8
	c0.4,0.8,2.8,2.6,3.5,2.6c0.6,0,1-0.7,0.8-1.3c0-0.1-0.6-0.6-1.3-1.1C4.5,8.1,4.3,7.8,4.6,7.2C4.8,6.7,5.1,6.6,8,6.6l2.7,0l3.5,2.8
	c1.9,1.6,3.8,2.9,4.1,3.1c0.5,0.2,0.8,0.3,4.7,0.3l4.1,0l4.6,1.7c2.5,1,4.6,1.8,4.7,1.8c0.2,0.2-1.8,1.2-2.8,1.6
	c-1.2,0.4-1.8,0.5-4.5,0.6c-2.2,0.1-2.2,0.1-3.2,0.5c-0.9,0.4-1.8,1.1-2.4,2l-0.3,0.4l-6.9-5c-4.8-3.5-7-5-7.3-5
	C8.4,11.4,8,11.8,8,12.4c0,0.5-0.2,0.4,6,4.8c2.7,1.9,5,3.6,5.2,3.7c0.2,0.2,0.2,0.2-0.7,0.8l-1,0.6l-0.3-0.3
	c-2.2-1.8-4.2-2.5-6.8-2.5c-4.1,0-7.6,2.2-9.3,5.9c-2.7,5.8,0.5,12.7,6.9,14.3c1.3,0.3,3.6,0.3,4.9,0c3.6-0.9,6.4-3.7,7.4-7.3
	c0.2-0.8,0.3-1.2,0.3-2.7c0-1,0-1.9-0.1-2.2c0-0.4,0-0.4,0.9-1c0.5-0.3,1-0.6,1-0.6c0,0,0.1,1.8,0.1,4l0,4l0.4,0.8
	c0.5,1.1,1.3,1.9,2.2,2.4c1,0.5,1.9,0.6,4.5,0.6c2.1,0,2.2,0,2.2,0.3c0,0.2-0.1,0.2-3.2,0.2c-3.1,0-3.3,0-3.5,0.2
	c-0.3,0.3-0.3,0.9,0,1.3l0.2,0.3l3.5,0c1.9,0,3.7,0,3.9,0c0.7-0.1,0.9-0.4,0.9-1.4v-0.9l4.5,0c4.2,0,4.5-0.1,4.7-0.3
	c0.4-0.4,0.3-0.9-0.3-2.1c-0.3-0.6-0.7-1.6-0.9-2.2c-0.3-1-0.3-1.3-0.3-3.1c0-1.7,0-2.1,0.3-3c0.3-1.2,0.9-2.6,1.3-3.1l0.2-0.3
	l0.6,0.6l0.6,0.6l-0.3,0.7c-0.6,1.4-0.8,2.2-0.8,4c0,1.8,0.2,2.6,0.8,4c1.2,2.9,3.9,5.1,7,5.9c1.4,0.4,3.6,0.4,4.9,0
	c3-0.8,5.4-2.7,6.8-5.5c0.5-0.9,1-2.5,1-3.1c0-0.2,0.1-0.4,0.1-0.4c0.1,0,0.1-0.6,0.1-1.2c0-0.8,0-1.1-0.1-1
	c-0.1,0.1-0.1,0.1-0.1-0.2c0-0.9-0.9-3.5-1.5-4.1c-0.3-0.3-1-0.3-1.3,0c-0.3,0.3-0.3,0.8,0.1,1.5c0.7,1.3,0.9,2.3,0.9,4
	c0,1.3-0.1,1.6-0.3,2.5c-0.5,1.4-1.1,2.4-2.3,3.5c-1.7,1.6-3.5,2.3-5.7,2.3c-2,0-3.7-0.6-5.2-1.8c-2.8-2.3-3.9-5.7-2.8-9.3
	c0.1-0.4,0.2-0.7,0.3-0.7c0,0,0.6,0.5,1.2,1.2l1.2,1.2l0,1.2c0,1,0.1,1.3,0.4,2c1.1,2.3,3.5,3.5,5.9,3c3.6-0.8,5.4-4.8,3.5-8
	c-0.4-0.7-1.4-1.6-2.3-2c-0.8-0.4-2.1-0.6-3-0.5l-0.6,0.1l-1.2-1.2c-0.7-0.6-1.2-1.2-1.1-1.2c0,0,0.5-0.2,0.9-0.4
	c1.1-0.4,3.4-0.5,4.7-0.2c1,0.3,2.2,0.8,3.1,1.4c0.8,0.6,1.4,0.7,1.7,0.3c0.3-0.3,0.3-0.9,0-1.3c-0.3-0.4-1.8-1.3-2.6-1.7
	c-2.5-1.1-5.9-1.1-8.5,0.1l-0.9,0.4l-0.5-0.5l-0.5-0.5l0.3-0.2c0.6-0.4,2-0.9,3.2-1.1c1-0.2,1.5-0.2,2.9-0.2l1.7,0.1l1.8-1.5
	c1-0.9,1.9-1.8,2.1-2.1c1-1.7,1.1-5.4,0.1-7.4C59,6.5,57,4.6,55.3,3.5c-3-2-6.2-3.1-10.1-3.4C43.5,0,43.5,0,42,0.1z M42.2,2
	c-0.9,0.1-1,0.3-0.3,1.4l0.6,1l1.2,0c1.2,0,1.2,0,1.5,0.3c0.3,0.4,0.3,0.5,0.1,1c-0.2,0.4-0.7,0.6-1.4,0.6c-0.3,0-0.5,0-0.5,0.1
	c0,0.1,0.1,0.4,0.2,0.8c0.2,1,0.2,2.6,0,3.7c-0.1,0.5-0.4,1.4-0.7,1.9c-0.7,1.4-2.1,2.9-4.7,4.6c-2.2,1.5-3.2,2-4.6,2.5
	c-1.1,0.3-3.9,0.6-4.6,0.5c-0.5-0.1-2,0.1-2.5,0.4c-0.7,0.3-1.4,1.1-1.8,1.9l-0.3,0.7v5.2v5.2l0.4,0.6c0.4,0.7,1.2,1.3,2,1.5
	c0.6,0.1,14,0.2,14,0.1c0,0-0.1-0.4-0.3-0.8c-0.7-1.7-0.9-2.8-0.9-5c0-1.9,0-2.3,0.3-3.4c1.3-4.8,5-8.4,9.8-9.7
	c1.1-0.3,1.5-0.3,3.2-0.4l2,0l0.7-0.7l0.7-0.7L56,15c-0.8-0.5-1.4-1.2-1.8-1.9c-0.4-0.7-0.4-0.9-0.5-1.8c0-0.9,0-1.2,0.2-1.8
	c0.4-1,0.9-1.7,1.8-2.2l0.7-0.5l-0.6-0.5c-2.4-2.1-5.7-3.5-8.9-4C45.5,2,43.1,1.8,42.2,2z M57,8.7c-0.8,0.5-1.2,1.1-1.3,2
	c-0.1,0.8,0.1,1.5,0.6,2c0.3,0.4,1.1,0.9,1.5,0.9c0.3,0,0.5-1,0.5-2.6c0-1.6-0.2-2.6-0.5-2.6C57.6,8.3,57.3,8.5,57,8.7z M33.6,8.6
	c-0.9,0.2-2.3,0.7-3.2,1.3c-0.7,0.4-1.8,1.5-1.7,1.6c0.1,0.1,9.3,3.6,9.5,3.6c0.2,0,1.4-0.9,2-1.6c0.8-0.8,1.3-1.9,1.1-2.2
	c-0.3-0.4-1.6-1.4-2.6-1.9C37.1,8.6,35.3,8.3,33.6,8.6z M44.9,21.5l-0.7,0.6l0.4,0.4c1.2,1.3,8.5,8.1,8.7,8.2
	c0.7,0.3,1.4-0.5,1.1-1.2c-0.1-0.2-8.7-8.5-8.8-8.5C45.6,20.9,45.3,21.2,44.9,21.5z M8.2,21.6c-2.8,0.7-5.1,3-6,5.7
	c-0.6,2-0.4,4.2,0.5,6.2c0.4,0.9,0.7,1.2,1.6,2.2C5.6,37,6.7,37.6,8.2,38c1.1,0.3,3,0.3,4.1,0c3.7-1,6.4-4.4,6.4-8.2
	c0-1.6,0-1.6-1.6-0.6L15.6,30l-0.2,0.8c-0.2,1-0.8,2.1-1.6,2.9c-2.6,2.4-6.8,1.7-8.4-1.6c-1-2.1-0.6-4.6,1.2-6.2
	c1.5-1.4,3.5-1.8,5.6-1l0.6,0.2l1.4-0.9l1.4-0.9l-0.3-0.3c-0.5-0.4-2.2-1.2-3.1-1.5C11.3,21.4,9.1,21.4,8.2,21.6z M15.7,25.6
	c-2.9,1.8-5.4,3.3-5.5,3.5c-0.4,0.3-0.2,1.1,0.2,1.4c0.3,0.2,0.4,0.2,0.7,0.1c0.4-0.1,10.9-6.6,11.3-6.9c0.1-0.1,0.2-0.2,0.2-0.3
	c0-0.1-1.4-1.1-1.5-1.1C21,22.3,18.6,23.8,15.7,25.6z M9.6,26.4C7.1,26.9,6,30,7.7,32c1.3,1.5,3.5,1.6,5,0.3c0.7-0.6,0.7-0.8,0-0.4
	c-1.1,0.7-2,0.8-3,0.3c-1-0.5-1.5-1.4-1.5-2.6c0-1.1,0.6-1.9,1.9-2.7C10.9,26.3,10.8,26.2,9.6,26.4z M55.1,27.4c1,1,1.2,1.6,1.2,2.5
	c0,1.5-1.3,2.7-2.8,2.7c-0.9,0-1.3-0.2-2.4-1.2c-0.8-0.8-1-0.8-0.7-0.1c1.2,2.2,4.1,2.6,5.7,0.7c1.4-1.6,1-4.1-0.8-5.2
	C54.2,26.2,54.2,26.3,55.1,27.4z M0,29.8c0,0.7,0,0.9,0,0.6c0-0.3,0-0.9,0-1.2C0.1,28.9,0,29.1,0,29.8z M28.6,31
	c-0.3,0.4-0.3,0.8,0,1.2c0.2,0.3,0.3,0.3,1.9,0.3c1.5,0,1.7,0,2-0.2c0.4-0.3,0.5-1,0.1-1.4c-0.2-0.2-0.4-0.2-2-0.2
	C28.8,30.7,28.8,30.7,28.6,31z"/>
</svg>
