<svg version="1.1" xmlns="http://www.w3.org/2000/svg" viewBox="0 0 106.2 106.2" fill="currentColor">
	<path d="M53.1,14c-1,0-1.9-0.8-1.9-1.9V1.9c0-1,0.8-1.9,1.9-1.9c1,0,1.9,0.8,1.9,1.9v10.2
			C55,13.2,54.2,14,53.1,14z" />
	<path d="M53.1,106.2c-1,0-1.9-0.8-1.9-1.9V94.1c0-1,0.8-1.9,1.9-1.9c1,0,1.9,0.8,1.9,1.9v10.2
			C55,105.4,54.2,106.2,53.1,106.2z" />
	<path d="M12.1,55H1.9c-1,0-1.9-0.8-1.9-1.9s0.8-1.9,1.9-1.9h10.2c1,0,1.9,0.8,1.9,1.9S13.2,55,12.1,55z" />
	<path d="M104.4,55H94.1c-1,0-1.9-0.8-1.9-1.9s0.8-1.9,1.9-1.9h10.2c1,0,1.9,0.8,1.9,1.9S105.4,55,104.4,55z
			" />
	<path d="M22.4,85.8c-0.5,0-1-0.2-1.3-0.5c-0.7-0.7-0.7-1.9,0-2.7l1.8-1.8c0.7-0.7,1.9-0.7,2.7,0
			c0.7,0.7,0.7,1.9,0,2.7l-1.8,1.8C23.3,85.6,22.9,85.8,22.4,85.8z" />
	<path d="M82.1,26c-0.5,0-1-0.2-1.3-0.5c-0.7-0.7-0.7-1.9,0-2.7l1.8-1.8c0.7-0.7,1.9-0.7,2.7,0
			s0.7,1.9,0,2.7l-1.8,1.8C83.1,25.8,82.6,26,82.1,26z" />
	<path d="M83.9,85.8c-0.5,0-1-0.2-1.3-0.5l-1.8-1.8c-0.7-0.7-0.7-1.9,0-2.7c0.7-0.7,1.9-0.7,2.7,0l1.8,1.8
			c0.7,0.7,0.7,1.9,0,2.7C84.8,85.6,84.4,85.8,83.9,85.8z" />
	<path d="M24.1,26c-0.5,0-1-0.2-1.3-0.5L21,23.7c-0.7-0.7-0.7-1.9,0-2.7c0.7-0.7,1.9-0.7,2.7,0l1.8,1.8
			c0.7,0.7,0.7,1.9,0,2.7C25.1,25.8,24.6,26,24.1,26z" />
	<path d="M39.3,80.6c-1.1,0-2.1-0.3-3-1c-2.8-2.1-2.4-5.8-1.7-13.2l0.2-1.7c0.2-1.7,0.2-2.5,0.1-3
			c-0.2-0.5-0.6-1-1.7-2.4L31.9,58c-4.7-5.5-7.1-8.3-6.1-11.7c0.9-2.9,4-3.9,7-4.7c1-0.3,2,0.3,2.3,1.3c0.3,1-0.3,2-1.3,2.3
			c-3.3,0.9-4.2,1.5-4.4,2.2c-0.4,1.4,1.7,4,5.3,8.2l1.1,1.3c1.3,1.6,2.1,2.4,2.5,3.7c0.4,1.2,0.3,2.4,0.1,4.5l-0.2,1.7
			c-0.5,5.4-0.9,9,0.3,9.9c1.1,0.8,4.2-0.6,8.9-2.8l1.5-0.7c1.9-0.9,2.9-1.3,4.2-1.3c1.3,0,2.3,0.5,4.2,1.3l1.5,0.7
			c4.7,2.2,7.8,3.6,8.9,2.8c1.1-0.9,0.8-4.4,0.3-9.9c-0.1-1,0.7-1.9,1.7-2c1-0.1,1.9,0.7,2,1.7c0.7,7.4,1.1,11.1-1.7,13.2
			c-2.9,2.2-6.4,0.6-12.7-2.4l-1.5-0.7c-1.4-0.6-2.1-1-2.6-1c-0.5,0-1.2,0.3-2.6,1L49,77.3C44.6,79.2,41.6,80.6,39.3,80.6z M76,55
			c-0.4,0-0.8-0.1-1.2-0.4c-0.8-0.6-0.9-1.8-0.3-2.6c1.9-2.4,2.6-3.7,2.3-4.6c-0.4-1.4-3.6-2.1-8.8-3.3l-1.6-0.4
			c-1.9-0.4-3.1-0.7-4.1-1.5c-1-0.8-1.6-1.8-2.6-3.6l-0.8-1.5c-2.5-4.5-4.3-7.8-5.7-7.8c-1.3,0-3.1,3.3-5.7,7.8
			c-0.5,0.9-1.6,1.2-2.6,0.7c-0.9-0.5-1.2-1.6-0.7-2.6c3.6-6.5,5.4-9.7,8.9-9.7c3.5,0,5.3,3.2,8.9,9.7l0.8,1.5
			c0.8,1.5,1.2,2.2,1.6,2.4c0.4,0.3,1.1,0.5,2.7,0.8l1.6,0.4c6.8,1.5,10.5,2.4,11.6,5.8c0.9,2.9-1,5.5-2.9,8
			C77.1,54.8,76.5,55,76,55z" />
</svg>