<svg version="1.1" xmlns="http://www.w3.org/2000/svg" viewBox="0 0 133.8 133.8" fill="currentColor">
	<path
		d="M74.5,47.8c-1.5-1-3.2-2.2-5.2-3.4c-7.3-4.5-11.4-6.9-15.3-4c-3.7,2.8-4,8-4.6,18.3
		c-0.2,3.1-0.3,5.8-0.3,8.1c0,2.3,0.1,5,0.3,8.1c0.6,10.3,0.9,15.5,4.6,18.3c1.2,0.9,2.4,1.3,3.7,1.3c3,0,6.5-2.1,11.6-5.3
		c2-1.2,3.7-2.3,5.2-3.4c1.7-1.2,3.6-2.6,5.7-4.4c7.2-5.8,11.1-9.1,11.1-14.7s-3.9-8.8-11.1-14.7l-1,1.2l0.9-1.2
		C78.1,50.5,76.1,49,74.5,47.8z M88.3,66.9c0,4.2-3.1,6.7-10,12.3c-2.1,1.7-3.9,3.1-5.5,4.2c-1.4,1-3.1,2.1-5,3.3
		c-7.2,4.4-9.8,5.8-12,4.1c-2.6-1.9-2.9-6.7-3.4-16.1c-0.2-3-0.3-5.7-0.3-7.9c0-2.2,0.1-4.9,0.3-7.9c0.5-9.4,0.8-14.1,3.4-16.1
		c0.6-0.5,1.2-0.7,2-0.7c2,0,4.8,1.6,10,4.8c1.9,1.2,3.6,2.3,5,3.3c1.6,1.1,3.5,2.6,5.5,4.2l0,0C85.2,60.2,88.3,62.7,88.3,66.9z" />
	<path
		d="M66.9,0C55.1,0,43.6,3.1,33.4,9c-0.7,0.4-1,1.3-0.5,2c0.4,0.7,1.3,1,2,0.5C44.6,6,55.7,3,66.9,3
		c35.2,0,63.9,28.7,63.9,63.9c0,35.2-28.7,63.9-63.9,63.9C31.7,130.8,3,102.1,3,66.9c0-11.2,3-22.3,8.5-31.9c0.4-0.7,0.2-1.6-0.5-2
		c-0.7-0.4-1.6-0.2-2,0.5C3.1,43.6,0,55.1,0,66.9c0,36.9,30,66.9,66.9,66.9s66.9-30,66.9-66.9C133.8,30,103.8,0,66.9,0z" />
</svg>