<?xml version="1.0" encoding="utf-8"?>
<!-- Generator: Adobe Illustrator 25.0.0, SVG Export Plug-In . SVG Version: 6.00 Build 0)  -->
<svg version="1.1" id="Layer_1" xmlns="http://www.w3.org/2000/svg" xmlns:xlink="http://www.w3.org/1999/xlink" x="0px" y="0px"
	 viewBox="0 0 70 38.2" style="enable-background:new 0 0 70 38.2;" xml:space="preserve">
<path style="fill:#FEE92A;" d="M65.9,15.6l-3.5-10l-10,0.5v10l6.5,5l7,0.5V15.6z"/>
<path style="fill-rule:evenodd;clip-rule:evenodd;fill:#105D36;" d="M1.2,0.3C0.9,0.5,0.5,0.9,0.3,1.2L0,1.7v14.1v14.1l0.4,0.6
	c0.7,1,1.2,1.1,3.6,1.2l2.1,0l0.2,0.7c0.2,1,0.9,2.4,1.7,3.3c2.3,2.6,6.3,3.3,9.3,1.7c2-1,3.3-2.8,3.9-5.1l0.2-0.6h11.7h11.7
	l0.1,0.6c0.1,0.9,1,2.6,1.8,3.4c2.3,2.5,6.1,3.2,9.2,1.7c1.9-1,3.4-2.9,4-5.2l0.2-0.6l2.6,0c1.4,0,2.9-0.1,3.1-0.1
	c0.6-0.2,1.4-0.8,1.7-1.4c0.2-0.4,0.2-1,0.2-5.3c0-5.5-0.1-6.3-1-9.2c-0.8-2.5-2.1-7-2.1-7.1c0-0.1,0.5-0.1,1-0.1h1l0.7,2.2
	c0.7,2.3,0.9,2.7,1.6,2.7c0.2,0,0.5-0.2,0.7-0.3l0.3-0.3l0,8.5c0,4.7,0,2.3,0-5.4c0-7.6,0-11.6-0.1-8.8l-0.1,5l-0.8-2.5
	c-1-3.2-0.9-3.1-3.3-3.1h-1.8l-0.3-1c-0.5-1.7-0.7-2.2-1-2.8c-0.4-0.8-1.4-1.6-2.4-2.1l-0.8-0.4L30.6,0L1.8,0L1.2,0.3z M0,15.8
	c0,7.6,0,10.7,0,6.9c0-3.8,0-10,0-13.8C0,5.1,0,8.2,0,15.8z M2.1,2.2C2.1,2.3,2,2.7,2,3.2V4h29.5H61l-0.2-0.4
	c-0.2-0.5-0.9-1-1.6-1.3C58.8,2.1,55.5,2,30.5,2C8.8,2,2.3,2.1,2.1,2.2z M2,10.8v4.8h3.1h3.1v-4.8V6H5.1H2V10.8z M10.3,10.8v4.8h1h1
	v-4.8V6h-1h-1V10.8z M14.3,10.8v4.8h3.5h3.5v-4.8V6h-3.5h-3.5V10.8z M23.3,10.8v4.8h0.9h0.9v-4.8V6h-0.9h-0.9V10.8z M27.2,10.8
	l0,4.8l3.5,0l3.5,0v-4.8V6h-3.6h-3.6L27.2,10.8z M36.3,10.8v4.8h0.9h0.9v-1.3c0-1.2,0-1.4,0.3-1.7c0.4-0.5,1-0.5,1.5,0
	c0.3,0.3,0.3,0.5,0.3,1.7v1.4h3.5h3.5v-4.8V6h-3.5h-3.5v1.4c0,1.6,0,1.7-0.6,2c-0.3,0.2-0.5,0.2-0.8,0.1c-0.5-0.2-0.7-0.7-0.7-2.1V6
	h-0.9h-0.9V10.8z M49.1,10.8v4.8h1h1v-4.8V6h-1h-1V10.8z M53.1,11v5l0.4,0.3c0.2,0.2,1.5,1.2,2.8,2.2c1.3,1.1,2.6,2,2.8,2.1
	c0.4,0.2,0.9,0.2,3.4,0.2h3l-0.1-1.1c-0.1-1.3-0.3-2.2-2-7.8c-0.7-2.3-1.4-4.6-1.5-5.1L61.7,6h-4.3h-4.3V11z M2,18.7v1h14.3h14.3
	L31,20c0.2,0.2,0.3,0.4,0.3,0.5c0,0.4-0.3,0.8-0.6,1c-0.2,0.1-4.4,0.2-14.5,0.2H2v3.7c0,3.2,0,3.8,0.2,4c0.2,0.2,0.5,0.2,2.1,0.2
	l1.9,0l0.2-0.7c0.5-2.1,2-4.1,3.9-5.1c0.9-0.5,2.6-0.9,3.5-0.9c3.7,0,6.8,2.6,7.6,6.3l0.1,0.4l11.6,0l11.6,0l0.2-0.7
	c0.5-2.1,2-4,3.9-5c0.9-0.5,2.6-0.9,3.5-0.9c2,0,4,0.8,5.4,2.3c1.1,1.1,1.8,2.4,2.2,4.1l0.1,0.4h2.7c2.6,0,2.7,0,2.9-0.3
	c0.2-0.3,0.2-0.8,0.2-3.3v-3h-3.1c-3.4,0-4-0.1-5.1-0.9l-0.6-0.5l-11.2,0l-11.2,0l-0.3-0.3c-0.4-0.4-0.3-1,0.1-1.4l0.3-0.3l9.8,0
	l9.8,0l-0.6-0.6c-0.3-0.3-0.9-0.7-1.2-0.9l-0.6-0.4H26.9H2V18.7z M12.2,25.2c-0.9,0.3-1.5,0.6-2.4,1.4c-1.3,1.2-1.8,2.6-1.7,4.4
	c0.1,2,1.3,3.8,3.2,4.6c0.9,0.4,1,0.4,2.4,0.4c1.4,0,1.6,0,2.3-0.4c1-0.5,2.2-1.7,2.7-2.7c0.4-0.8,0.4-0.9,0.4-2.3
	c0-1.4,0-1.6-0.4-2.4C17.7,25.7,14.9,24.4,12.2,25.2z M50.8,25.2c-0.9,0.3-1.5,0.6-2.4,1.4c-1.3,1.2-1.8,2.6-1.7,4.4
	c0.1,2,1.3,3.8,3.2,4.6c0.9,0.4,1,0.4,2.4,0.4c1.4,0,1.6,0,2.3-0.4c1-0.5,2.2-1.7,2.7-2.7c0.4-0.8,0.4-0.9,0.4-2.3
	c0-1.4,0-1.6-0.4-2.4C56.2,25.7,53.5,24.4,50.8,25.2z M12.8,26.4c-1,0.3-1.6,0.6-2.2,1.3c-1.9,2.1-1.3,5.4,1.4,6.8
	c0.9,0.5,2.7,0.5,3.6,0.1c0.8-0.4,1.7-1.3,2.2-2.2c0.5-0.9,0.5-2.6,0-3.5c-0.6-1.3-1.8-2.2-3.1-2.5C13.7,26.1,13.6,26.1,12.8,26.4z
	 M51.3,26.4c-1,0.3-1.6,0.6-2.2,1.3c-1.9,2.1-1.3,5.4,1.4,6.8c0.9,0.5,2.7,0.5,3.6,0.1c0.8-0.4,1.7-1.3,2.2-2.2
	c0.5-0.9,0.5-2.6,0-3.5c-0.6-1.3-1.8-2.2-3.1-2.5C52.3,26.1,52.1,26.1,51.3,26.4z M13,28.4c-0.7,0.2-1,0.6-1.4,1.3
	c-0.9,1.9,1.4,3.9,3.2,2.8c0.6-0.4,1.2-1.3,1.2-2c0-1-0.7-1.9-1.7-2.2C13.7,28.2,13.7,28.2,13,28.4z M51.6,28.4
	c-0.7,0.3-1,0.6-1.4,1.3c-0.9,1.9,1.3,3.9,3.2,2.9c1.2-0.6,1.6-2.4,0.7-3.4C53.5,28.4,52.4,28.1,51.6,28.4z"/>
</svg>
