<?xml version="1.0" encoding="utf-8"?>
<!-- Generator: Adobe Illustrator 25.0.0, SVG Export Plug-In . SVG Version: 6.00 Build 0)  -->
<svg version="1.1" id="Layer_1" xmlns="http://www.w3.org/2000/svg" xmlns:xlink="http://www.w3.org/1999/xlink" x="0px" y="0px"
	 viewBox="0 0 65 43.7" style="enable-background:new 0 0 65 43.7;" xml:space="preserve">
<path style="fill:#FEE92A;" d="M16,23.5c-13.2-1.6-15.5,6.7-15,11h26C27.4,24.9,19.8,23.2,16,23.5z"/>
<path style="fill-rule:evenodd;clip-rule:evenodd;fill:#105D36;" d="M34.2,0c-0.6,0.1-1.1,0.7-1.2,1.5c-0.1,0.8,0.1,1.8,0.5,2.3
	c0.5,0.7,1,0.8,3.7,0.8l2.4,0L40,5.2c0.2,0.3,0.4,0.6,0.4,0.6c0,0-0.1,0.6-0.2,1.3l-0.1,1.2l-1.5,0.3c-2.4,0.5-2.8,0.6-3,0.9
	c-0.2,0.4-0.1,0.9,0.3,1.2c0.3,0.2,0.4,0.2,2.7-0.2c3.2-0.6,3-0.7,3.7,1.8c1.3,4.4,1.8,7.1,2.1,10.6c0.2,2.4-0.4,5.9-1,6.6
	c-0.6,0.7-0.9,0.7-3.5,0.8c-3.2,0.1-4.4-0.1-5.7-0.7c-2.2-1.1-3.6-3.5-3.4-6c0.1-0.7,0.3-1.6,1.4-4.6l1.4-3.7l-0.1-0.8
	c-0.3-1.7-1.5-3.5-3-4.3c-1.4-0.7-1.5-0.7-9.6-0.7c-7.4,0-7.5,0-7.9,0.3c-0.8,0.5-1,1-1,1.9c0,0.8,0.3,1.8,0.8,2.5
	c0.3,0.4,0.3,0.5,0.2,0.6c-0.1,0-0.6,0.2-1,0.3C7.4,16.5,3.7,19.8,1.6,24C0.5,26.5,0,28.9,0,32.2c0,1.9,0,2.1,0.3,2.6
	c0.2,0.4,0.5,0.6,0.8,0.8c0.5,0.3,0.7,0.3,2.4,0.3h1.9l0.1,0.6c0,0.3,0.3,1,0.5,1.5c2,5,7.8,7.1,12.5,4.7c2.3-1.2,4-3.3,4.7-5.8
	l0.2-0.9l11.2-0.1c6.2,0,11.4-0.1,11.7-0.2l0.5-0.1l0.2,1c0.3,1.3,1,2.7,1.9,3.8c2.8,3.4,7.8,4.2,11.6,2c1-0.6,2.6-2.3,3.2-3.3
	c1-1.7,1.4-4.1,1.3-7.8l0-1.8l0,2l0,2l-0.2-0.9c-0.4-1.7-1.2-3.2-2.4-4.5c-0.6-0.7-0.7-0.7-0.4-0.8c0.1,0,0.4-0.3,0.6-0.6
	c0.6-0.9,0.4-1.7-0.8-3.3c-1.6-2.1-4.6-3.6-7.3-3.6l-0.8,0l-1-1.8c-1.1-2-1.4-2.3-2.1-2c-0.2,0.1-0.4,0.3-0.5,0.5
	c-0.2,0.4-0.2,0.4,1.1,2.6l0.8,1.4l-0.8,0.9c-1.7,2-2.6,3.2-3.6,5.3c-0.8,1.7-1.3,3.3-1.5,5.3l-0.1,1.5l-0.4,0.1
	c-0.2,0-4.3,0.1-9,0.1h-8.6l-0.1-1.7c-0.1-2-0.3-2.9-1.1-4.5c-1.8-3.4-5.1-5.4-9.1-5.5c-1.6,0-1.9,0.1-1.9,0.9c0,0.7,0.3,0.9,2,1
	c0.9,0,1.8,0.2,2.3,0.3c2.2,0.7,4.2,2.3,5.1,4.2c0.7,1.4,0.9,2.2,1,3.9L26,34H13.9H1.9l0.1-1c0.4-4.9,4.6-8.8,9.7-8.8
	c0.7,0,0.8,0,1.1-0.3c0.6-0.6,0.3-1.3-0.6-1.5c-0.5-0.1-2.8,0.1-3.9,0.5c-1.8,0.5-3.6,1.6-4.9,2.9c-0.3,0.3-0.6,0.5-0.6,0.4
	c0-0.3,1.1-2.4,1.6-3.2c1.3-1.9,3-3.5,5.1-4.7c2-1.1,3.9-1.7,6.4-1.9c1.7-0.1,15.3-0.2,15.3,0c0,0.1-0.3,1.1-0.8,2.4
	c-1.2,3.3-1.4,4-1.4,5.4c0,0.7,0.1,1.5,0.2,2c0.6,2.2,2.1,4.1,4,5.1c1.7,0.9,2.1,0.9,6.2,0.9c3.4,0,3.6-0.1,4.1-0.3
	c1.9-1,2.5-2.7,2.7-7.1c0.1-1.9,0-2.9-0.1-4.2c-0.4-2.9-1-5.6-1.9-8.4c-0.3-0.9-0.5-1.6-0.5-1.7c0,0,0.5-0.1,1.1-0.1h1.1l1,1.8
	c1,1.8,1.3,2.1,1.9,2.1c0.3,0,0.8-0.6,0.8-0.9c0-0.2-0.3-0.9-0.8-1.6L48,10.4l1.2-0.1c1,0,1.3-0.1,1.6-0.3c0.7-0.5,0.7-0.8,0.7-3.6
	c0-2.4,0-2.5-0.3-3C50.9,3,50.5,2.7,50,2.7c-0.2,0-2.1,0.4-4.2,1c-2.1,0.5-3.9,0.9-3.9,0.9c-0.1,0,0-0.2,0.1-0.4
	C42,4,42.1,3.7,42.1,3.6c0-0.2-1.2-1.7-2.2-2.9L39.2,0l-2.3,0C35.6,0,34.4,0,34.2,0z M34.9,2.1c0,0.6,0,0.6,2.2,0.6c1.1,0,2,0,2-0.1
	c0,0-0.2-0.2-0.3-0.4l-0.3-0.4h-1.8C35,1.9,34.9,1.9,34.9,2.1z M49.4,4.7c-0.1,0-0.4,0.1-0.7,0.2L48.2,5v1.7v1.7h0.8h0.8V6.5
	c0-1,0-1.9-0.1-1.9C49.5,4.7,49.4,4.7,49.4,4.7z M44.1,6c-1,0.3-1.9,0.6-2,0.7C42,6.8,42,7.2,42,7.6l0,0.8h2.2h2.2V7
	c0-1.1,0-1.5-0.2-1.4C46,5.5,45.1,5.8,44.1,6z M13.7,12c0.1,0.8,0.6,1.6,1.2,2l0.5,0.3l8,0c4.4,0,8,0,8,0c0-0.3-0.7-1.4-1.2-1.8
	c-1.1-1-0.9-1-9.3-1l-7.4,0L13.7,12z M52.3,23.2c-2,2.3-3.5,5-4.1,7.3c-0.4,1.8-0.4,2,0.1,1c1-1.8,3.2-3.5,6-4.5
	c1.4-0.5,3.8-1,5.2-1.1c0.7,0,1.3-0.1,1.3-0.2c0-0.1-0.2-0.4-0.6-0.8c-1.3-1.8-3.6-2.9-6-3l-0.9,0L52.3,23.2z M57.9,28
	c-1.3,0.3-2,0.5-2,0.6c0,0.3,0.2,0.5,0.9,0.6c2.9,0.5,5,3.4,4.5,6.3c-0.6,3.7-4.5,5.7-7.8,4.2c-0.8-0.4-1.9-1.4-2.4-2.2
	c-0.9-1.6-1-3.6-0.2-5.2c0.2-0.4,0.3-0.7,0.2-0.9c-0.1-0.3-0.6,0.2-1.2,1.3c-0.3,0.5-0.7,1.2-0.9,1.4c-0.5,0.5-0.5,0.8-0.1,2.2
	c0.3,1.4,0.9,2.4,1.9,3.4c1.8,1.8,4.4,2.5,6.9,1.9c1.4-0.4,2.1-0.8,3.3-1.9c2.3-2.3,2.8-5.4,1.3-8.4c-0.5-1.1-1.9-2.5-3-3
	C58.5,27.9,58.4,27.9,57.9,28z M53.1,29.6L52.4,30l1.3,2.4c0.7,1.3,1.4,2.5,1.5,2.6c0.6,0.4,1.4,0,1.4-0.7c0-0.4-2.4-5.1-2.6-5.1
	C53.9,29.2,53.5,29.4,53.1,29.6z M0.1,32c0,1.3,0,1.7,0,1.1c0-0.6,0-1.7,0-2.3C0.1,30.3,0.1,30.8,0.1,32z M57.8,32.4
	c0.7,1.4,0.8,2.2,0.3,3.2c-0.5,1-1.3,1.5-2.4,1.5c-1.3,0-2-0.5-2.9-2.1c-0.5-1-0.7-1-0.7-0.1c0,1.2,0.9,2.6,2.1,3.2
	c0.3,0.2,0.9,0.3,1.4,0.3c0.8,0.1,1,0,1.6-0.3c1-0.4,1.4-0.9,1.9-1.8c0.6-1.3,0.5-2.6-0.3-3.7c-0.3-0.5-1.1-1.2-1.4-1.2
	C57.3,31.4,57.5,31.8,57.8,32.4z M7.5,36.6c0.8,2.6,2.8,4.5,5.4,5c1.2,0.3,2,0.3,3.2,0c2.6-0.6,4.5-2.5,5.3-5.1l0.2-0.7h-0.9
	c-0.6,0-0.9,0-0.9,0.2c0,0.4-0.8,1.8-1.5,2.5c-0.9,0.9-1.8,1.3-3.1,1.6c-2.5,0.4-5.1-1.1-6-3.4L9,35.9H8.1H7.2L7.5,36.6z M11.2,36.4
	c0.9,1.5,2.8,2.3,4.4,1.7c0.7-0.2,1.7-1.1,2-1.7l0.3-0.5h-3.5h-3.5L11.2,36.4z"/>
</svg>
