<svg version="1.1" xmlns="http://www.w3.org/2000/svg" viewBox="0 0 57 56" fill="currentColor">
	<path d="M19.6,24H5.4c-1.4,0-2.8-0.6-3.8-1.5c-1-1-1.6-2.3-1.6-3.7V5.2c0-1.4,0.6-2.7,1.6-3.7
		C2.6,0.6,4,0,5.4,0h14.2c1.4,0,2.8,0.6,3.8,1.5c1,1,1.6,2.3,1.6,3.7v13.5c0,1.4-0.6,2.7-1.6,3.7C22.4,23.4,21,24,19.6,24z M5.4,4.1
		c-0.3,0-0.6,0.1-0.9,0.3C4.3,4.6,4.2,4.9,4.2,5.2v13.5c0,0.3,0.1,0.6,0.4,0.8c0.2,0.2,0.5,0.3,0.9,0.3h14.2c0.3,0,0.6-0.1,0.9-0.3
		c0.2-0.2,0.4-0.5,0.4-0.8V5.2c0-0.3-0.1-0.6-0.4-0.8c-0.2-0.2-0.5-0.3-0.9-0.3H5.4z" />
	<path d="M19.8,56H6.2c-1.4,0-2.7-0.6-3.7-1.5c-1-1-1.5-2.3-1.5-3.7V37.2c0-1.4,0.5-2.7,1.5-3.7
		c1-1,2.3-1.5,3.7-1.5h13.6c1.4,0,2.7,0.6,3.7,1.5c1,1,1.5,2.3,1.5,3.7v13.5c0,1.4-0.5,2.7-1.5,3.7C22.5,55.4,21.2,56,19.8,56z
		 M6.2,36.1c-0.3,0-0.6,0.1-0.8,0.3C5.1,36.6,5,36.9,5,37.2v13.5c0,0.3,0.1,0.6,0.3,0.8c0.2,0.2,0.5,0.3,0.8,0.3h13.6
		c0.3,0,0.6-0.1,0.8-0.3c0.2-0.2,0.3-0.5,0.3-0.8V37.2c0-0.3-0.1-0.6-0.3-0.8c-0.2-0.2-0.5-0.3-0.8-0.3H6.2z" />
	<path d="M50.8,56H37.2c-1.4,0-2.7-0.6-3.7-1.5c-1-1-1.5-2.3-1.5-3.7V37.2c0-1.4,0.5-2.7,1.5-3.7
		c1-1,2.3-1.5,3.7-1.5h13.6c1.4,0,2.7,0.6,3.7,1.5c1,1,1.5,2.3,1.5,3.7v13.5c0,1.4-0.5,2.7-1.5,3.7C53.5,55.4,52.2,56,50.8,56z
		 M37.2,36.1c-0.3,0-0.6,0.1-0.8,0.3S36,36.9,36,37.2v13.5c0,0.3,0.1,0.6,0.3,0.8c0.2,0.2,0.5,0.3,0.8,0.3h13.6
		c0.3,0,0.6-0.1,0.8-0.3c0.2-0.2,0.3-0.5,0.3-0.8V37.2c0-0.3-0.1-0.6-0.3-0.8c-0.2-0.2-0.5-0.3-0.8-0.3L37.2,36.1z" />
	<path d="M44.9,24c-2.4,0-4.7-0.7-6.6-2.1c-2-1.3-3.5-3.2-4.4-5.4c-0.9-2.2-1.1-4.6-0.6-6.9
		c0.5-2.3,1.6-4.5,3.3-6.1c1.7-1.7,3.8-2.8,6.1-3.3C45-0.2,47.4,0,49.6,0.9c2.2,0.9,4.1,2.4,5.4,4.4c1.3,2,2,4.3,2,6.7
		c0,3.2-1.3,6.2-3.6,8.5C51.2,22.7,48.1,24,44.9,24z M44.9,4.1c-1.6,0-3.1,0.5-4.4,1.4c-1.3,0.9-2.3,2.1-2.9,3.6
		c-0.6,1.5-0.7,3-0.4,4.6c0.3,1.5,1.1,2.9,2.2,4c1.1,1.1,2.5,1.9,4.1,2.1c1.5,0.3,3.1,0.1,4.6-0.5c1.4-0.6,2.7-1.6,3.6-2.9
		c0.9-1.3,1.3-2.8,1.3-4.4c0-2.1-0.9-4.1-2.4-5.6C49.1,4.9,47,4,44.9,4.1L44.9,4.1z" />
</svg>